<?xml version="1.0" standalone="no"?>
<!DOCTYPE svg PUBLIC "-//W3C//DTD SVG 20010904//EN"
 "http://www.w3.org/TR/2001/REC-SVG-20010904/DTD/svg10.dtd">
<svg version="1.0" xmlns="http://www.w3.org/2000/svg"
 width="1024.000000pt" height="1024.000000pt" viewBox="0 0 1024.000000 1024.000000"
 preserveAspectRatio="xMidYMid meet">

<g transform="translate(0.000000,1024.000000) scale(0.100000,-0.100000)"
fill="#000000" stroke="none">
<path d="M966 9635 c-3 -8 -16 -15 -30 -15 -68 0 -266 -152 -282 -216 -4 -13
-10 -24 -15 -24 -5 0 -9 -10 -9 -23 0 -13 -6 -29 -12 -35 -19 -19 -19 -3415 0
-3433 6 -7 12 -21 12 -31 0 -49 136 -206 205 -237 17 -7 38 -18 48 -23 35 -18
214 -30 502 -35 l290 -4 185 185 c102 103 193 186 202 186 21 0 20 11 18 -202
l-2 -168 181 0 181 0 0 376 c-1 207 0 378 2 380 2 1 336 338 742 748 l740 746
368 0 368 0 0 175 0 175 -172 2 c-132 2 -172 6 -176 16 -2 8 73 92 172 191
l176 177 0 381 c0 244 -4 384 -10 388 -5 3 -10 17 -10 29 0 13 -7 29 -15 36
-8 7 -15 19 -15 26 0 7 -33 47 -72 87 -72 73 -160 127 -205 127 -12 0 -28 7
-37 15 -13 13 -212 15 -1669 15 -1462 0 -1656 -2 -1661 -15z m1397 -1557 c38
-40 39 -43 35 -99 -5 -69 -29 -101 -96 -131 -43 -19 -43 -19 -85 1 -80 40 -89
51 -94 122 -5 60 -3 67 22 98 35 41 56 50 124 50 51 1 57 -2 94 -41z m1042
-278 c10 -15 -912 -924 -941 -928 l-24 -3 0 321 0 321 26 24 c15 14 31 25 36
25 33 0 159 124 189 186 11 24 28 48 37 54 23 13 669 13 677 0z"/>
<path d="M5940 9613 c-85 -9 -232 -106 -279 -184 -71 -117 -73 -134 -78 -523
l-4 -349 180 -178 c175 -173 208 -218 164 -220 -10 0 -91 0 -180 1 l-163 1 0
-170 0 -171 369 0 369 0 743 -745 c409 -410 746 -751 751 -758 4 -6 8 -175 8
-375 l0 -362 168 2 167 3 5 175 c5 161 7 175 24 178 13 3 72 -49 201 -178
l183 -182 364 4 c387 5 402 7 480 60 14 10 30 18 34 18 5 0 32 25 60 55 51 54
86 114 108 185 16 53 21 3296 5 3370 -30 138 -112 245 -237 307 l-77 38 -1665
1 c-916 1 -1681 -1 -1700 -3z m2144 -1516 c30 -22 56 -72 56 -110 0 -73 -81
-157 -149 -157 -71 1 -149 81 -151 153 0 35 24 89 51 113 40 36 141 37 193 1z
m-569 -289 c15 -7 37 -32 50 -57 27 -53 109 -137 167 -172 23 -13 52 -34 65
-46 l23 -22 -2 -328 -3 -328 -22 0 c-15 0 -161 138 -487 463 -256 254 -466
469 -466 476 0 7 3 16 7 19 12 13 640 8 668 -5z"/>
<path d="M4290 7341 c-150 -42 -242 -93 -349 -195 -62 -59 -151 -171 -151
-189 0 -5 -8 -21 -18 -35 -10 -15 -26 -52 -36 -82 -36 -106 -52 -128 -99 -141
-160 -43 -300 -139 -426 -293 -67 -82 -110 -168 -146 -291 -21 -74 -25 -108
-25 -219 l0 -131 -51 -44 c-51 -44 -129 -136 -129 -152 0 -5 106 -9 249 -9
235 0 250 1 274 21 45 35 53 84 32 195 -26 139 -17 254 26 337 86 166 234 259
414 259 217 0 420 -169 445 -372 13 -95 21 -100 184 -100 165 0 176 6 176 88
0 62 -27 164 -68 257 -78 177 -235 333 -412 411 -47 21 -91 42 -97 47 -49 36
72 193 199 257 93 48 272 60 361 25 16 -7 17 6 17 178 0 167 -2 186 -17 192
-10 4 -70 9 -133 11 -103 4 -126 1 -220 -25z"/>
<path d="M5660 7364 c-14 -3 -37 -10 -52 -16 l-28 -10 0 -179 0 -179 28 11
c15 6 84 12 153 12 119 1 129 -1 185 -28 139 -67 275 -231 228 -275 -5 -4 -40
-20 -79 -36 -124 -49 -225 -125 -318 -239 -67 -82 -141 -221 -152 -284 -4 -24
-14 -59 -21 -77 -26 -63 -16 -135 22 -153 33 -15 246 -14 279 1 26 12 28 16
44 110 11 65 44 129 98 194 49 58 103 96 188 130 58 23 85 28 160 28 77 1 101
-3 163 -28 130 -52 225 -149 273 -276 26 -69 29 -232 5 -301 -26 -72 -19 -135
19 -172 14 -15 47 -17 271 -17 254 0 255 0 241 20 -23 33 -82 94 -123 129
l-39 31 3 109 c2 60 -2 137 -8 172 -33 189 -136 368 -281 491 -56 46 -185 128
-203 128 -6 0 -22 6 -36 13 -14 7 -44 19 -67 26 -48 16 -60 31 -92 116 -57
153 -144 276 -260 370 -84 67 -202 129 -278 146 -32 7 -64 17 -70 22 -14 10
-212 19 -253 11z"/>
<path d="M6834 4615 c-18 -44 -18 -84 2 -152 12 -40 15 -84 12 -162 -3 -100
-6 -111 -41 -181 -21 -41 -46 -84 -55 -94 -42 -47 -136 -116 -171 -126 -22 -6
-52 -17 -68 -25 -18 -10 -57 -15 -108 -15 -224 0 -427 164 -456 370 -13 86
-28 107 -84 116 -67 10 -230 0 -248 -14 -30 -26 -31 -87 -1 -200 15 -59 33
-114 39 -122 6 -8 18 -31 25 -50 27 -69 119 -180 214 -258 66 -54 135 -93 244
-138 59 -24 64 -50 19 -116 -58 -87 -128 -148 -215 -187 -66 -30 -245 -36
-333 -11 l-29 9 0 -179 c0 -172 1 -180 21 -191 26 -13 298 -15 325 -1 11 5 29
14 41 20 13 7 31 12 40 12 22 0 165 72 221 111 77 55 232 229 232 261 0 5 8
21 19 36 15 22 48 110 67 180 2 7 21 20 41 28 21 8 52 22 70 30 17 8 35 14 41
14 5 0 40 16 78 36 270 143 437 421 434 724 -1 52 -1 102 -1 110 1 8 32 47 70
86 38 39 74 81 80 92 l12 22 -261 0 -261 0 -15 -35z"/>
<path d="M7820 4207 l0 -443 -654 -654 c-360 -359 -663 -658 -672 -663 -10 -6
-197 -9 -465 -8 l-449 2 0 -180 0 -181 244 0 c134 0 251 -3 260 -6 9 -3 16
-14 16 -23 0 -17 -429 -451 -446 -451 -5 0 -24 9 -41 20 l-33 20 0 -308 c0
-264 3 -318 19 -384 33 -140 115 -242 241 -302 l65 -31 1620 -8 c1006 -6 1652
-5 1705 1 187 20 329 133 380 303 19 62 20 104 20 1711 0 1775 2 1696 -51
1798 -31 57 -112 141 -164 168 -108 57 -96 55 -457 60 l-336 4 4 -39 c5 -38 4
-39 -208 -256 -117 -119 -218 -217 -224 -217 -29 0 -34 32 -36 266 l-3 239
-167 3 -168 2 0 -443z m-2 -969 c17 -17 17 -473 -1 -508 -7 -14 -33 -36 -57
-49 -57 -32 -166 -140 -184 -183 -31 -72 -32 -73 -289 -76 -127 -2 -242 0
-255 3 -54 13 -27 46 368 440 212 212 390 385 395 385 6 0 16 -5 23 -12z m240
-862 c53 -28 67 -53 67 -123 0 -62 -2 -66 -37 -99 -34 -31 -44 -34 -96 -34
-64 0 -79 8 -117 59 -44 61 -26 148 42 199 23 16 107 15 141 -2z"/>
<path d="M863 4604 c-123 -61 -198 -151 -237 -286 -14 -51 -16 -210 -16 -1687
0 -1764 -2 -1683 52 -1790 39 -77 111 -145 196 -188 l77 -38 1700 0 1700 0 72
37 c89 46 134 85 180 161 65 107 73 161 73 510 0 301 0 307 -19 297 -48 -25
-61 -15 -279 203 -117 117 -212 218 -212 223 0 31 26 34 267 34 l243 0 0 181
0 180 -451 -2 -451 -2 -659 659 -659 659 0 442 0 443 -175 0 -175 0 0 -229 c0
-126 -3 -236 -6 -245 -3 -9 -14 -16 -23 -16 -9 0 -111 95 -227 210 -191 193
-209 214 -209 245 l0 35 -345 0 -345 0 -72 -36z m1984 -1746 c369 -369 408
-415 356 -419 -10 -1 -119 -1 -243 1 -250 2 -245 1 -281 72 -26 50 -115 137
-184 179 l-55 33 0 253 c0 234 1 253 18 253 9 0 183 -166 389 -372z m-490
-500 c63 -61 65 -136 8 -201 -64 -72 -205 -50 -235 36 -24 69 -7 143 38 173
66 43 140 40 189 -8z"/>
<path d="M2890 4632 c0 -5 33 -41 74 -81 l74 -73 4 -152 c3 -110 9 -161 20
-186 9 -19 19 -48 23 -65 16 -75 100 -215 177 -296 108 -114 193 -164 396
-236 32 -12 44 -22 48 -42 6 -27 40 -121 56 -156 69 -150 193 -281 347 -366
25 -14 55 -30 66 -36 11 -6 48 -19 83 -29 35 -10 65 -21 68 -26 9 -13 308 -10
322 4 8 8 12 64 12 186 l0 174 -22 -5 c-107 -26 -301 -13 -350 23 -15 11 -32
20 -38 20 -32 0 -190 181 -190 218 0 25 38 59 75 68 54 13 163 77 237 138 120
102 233 271 253 381 3 21 14 53 22 69 16 31 12 105 -9 151 -14 30 -60 38 -188
34 -85 -4 -93 -6 -115 -31 -14 -17 -27 -51 -34 -94 -19 -108 -85 -207 -185
-280 -33 -24 -66 -44 -74 -44 -7 0 -33 -9 -58 -20 -62 -29 -195 -29 -256 -2
-24 11 -57 23 -74 26 -51 11 -173 132 -211 208 -56 113 -61 203 -23 394 8 38
7 61 -2 90 l-13 39 -258 3 c-141 1 -257 -1 -257 -6z"/>
</g>
</svg>
